# xmcd
#
# Track frame offsets:
#	150
#	12070
#	26387
#	41263
#	56039
#	81223
#	95785
#	114575
#	129944
#	146718
#	163948
#	179182
#	193288
#
# Disc length: 2880 seconds
#
# Revision: 1
# Processed by: cddbd v1.5.2PL0 Copyright (c) Steve Scherf et al.
# Submitted via: audiograbber 1.83.01
#
DISCID=b60b3e0d
DTITLE=Western Road Band - More Than Country
DYEAR=1900
DGENRE=Country
TTITLE0=Six Days On The Road
TTITLE1=Every Little Thing 
TTITLE2=Fishing In The Dark
TTITLE3=I Gotta Get Away
TTITLE4=Dixieland Delight
TTITLE5=Blue Moon Of Kentucky
TTITLE6=Any Man Of Mine
TTITLE7=Cotton Fields
TTITLE8=Walk Of Life
TTITLE9=Why Not Me
TTITLE10=Tulsa Time
TTITLE11=Summertime Bluse
TTITLE12=Kawliga
EXTD=
EXTT0=
EXTT1=
EXTT2=
EXTT3=
EXTT4=
EXTT5=
EXTT6=
EXTT7=
EXTT8=
EXTT9=
EXTT10=
EXTT11=
EXTT12=
PLAYORDER=
